<svg width="250" height="250" viewBox="0 0 250 250" fill="none" xmlns="http://www.w3.org/2000/svg">
<rect width="250" height="250" rx="20" fill="#514942"/>
<path d="M179.225 110.14L179.093 110.306L179.22 110.135L124.973 67.7081L124.972 65.3418C124.972 65.3416 124.972 65.3415 124.972 65.3414C124.972 65.2556 124.966 65.1742 124.963 65.1262L124.962 65.1167L124.961 65.0935L124.958 65.0707C124.96 65.0909 124.961 65.0874 124.961 65.0616C124.966 64.7021 125.035 60.0125 132.179 55.2155C141.067 49.2482 140.646 40.7418 140.507 39.3162C140.431 29.7523 132.628 22 123.047 22C113.419 22 105.586 29.8326 105.586 39.4605C105.586 40.8627 106.721 41.9983 108.123 41.9983C109.526 41.9983 110.661 40.8627 110.661 39.4605C110.661 32.6312 116.217 27.0746 123.048 27.0746C129.877 27.0746 135.434 32.6304 135.434 39.4605C135.434 39.5753 135.442 39.6909 135.458 39.8057L135.459 39.8126C135.459 39.8108 135.459 39.8121 135.459 39.8166C135.48 40.0164 136.146 46.4418 129.352 51.0028C119.98 57.2943 119.831 64.1196 119.899 65.4221V67.8095L65.6672 110.236L65.6282 110.267L65.5925 110.301C62.0324 113.703 60 118.523 60 123.525L60 128.995C60 128.995 60 128.995 60 128.995C59.9988 138.889 67.7705 147 77.4024 147H167.596C177.228 147 185 138.889 185 128.994V123.524C185 118.525 182.97 113.708 179.414 110.306C179.35 110.242 179.286 110.188 179.225 110.14ZM178.646 110.869L178.609 110.916L178.646 110.869ZM179.926 128.993V128.994C179.926 136.165 174.353 141.924 167.597 141.924H77.4029C70.6468 141.924 65.0737 136.165 65.0737 128.994V123.525C65.0737 119.902 66.5366 116.436 68.948 114.102L122.501 72.2181L175.992 114.052C178.49 116.488 179.928 119.931 179.929 123.524C179.929 123.524 179.929 123.524 179.929 123.525L179.926 128.993Z" fill="#BFAC9C" stroke="#BFAC9C" stroke-width="2"/>
<path d="M85.832 223.96C80.904 223.96 76.488 222.872 72.584 220.696C68.744 218.456 65.704 215.416 63.464 211.576C61.224 207.672 60.104 203.256 60.104 198.328V156.376H69.128V198.136C69.128 201.656 69.864 204.696 71.336 207.256C72.808 209.816 74.792 211.8 77.288 213.208C79.848 214.616 82.696 215.32 85.832 215.32C89.096 215.32 91.944 214.616 94.376 213.208C96.872 211.8 98.824 209.816 100.232 207.256C101.704 204.696 102.44 201.688 102.44 198.232V156.376H111.56V198.424C111.56 203.352 110.44 207.736 108.2 211.576C105.96 215.416 102.92 218.456 99.08 220.696C95.24 222.872 90.824 223.96 85.832 223.96ZM162.536 223V158.296H171.56V223H162.536ZM139.88 164.632V156.376H194.12V164.632H139.88Z" fill="#BFAC9C"/>
</svg>
